<svg xmlns="http://www.w3.org/2000/svg" width="38" height="41.998"><g fill-rule="evenodd"><path data-name="Path 19" d="M17.9.284a2.262 2.262 0 012.2 0c3.352 1.883 13.449 7.551 16.8 9.434a2.125 2.125 0 011.1 1.847v18.868a2.125 2.125 0 01-1.1 1.848l-16.8 9.433a2.262 2.262 0 01-2.2 0L1.1 32.28A2.125 2.125 0 010 30.433V11.565a2.125 2.125 0 011.1-1.848C4.452 7.834 14.553 2.166 17.9.283z" fill="#283593"/><path data-name="Path 20" d="M.3 31.399a1.717 1.717 0 01-.3-1.146V11.499a2.111 2.111 0 011.094-1.84C4.438 7.788 14.5 2.151 17.844.28a2.408 2.408 0 012.27.008c3.344 1.871 13.371 7.457 16.715 9.328a2.09 2.09 0 01.66.578z" fill="#5c6bc0"/><path data-name="Path 21" d="M19 6.999a14 14 0 11-14 14 14.007 14.007 0 0114-14zm0 7a7 7 0 11-7 7 7 7 0 017-7z" fill="#fff"/><path data-name="Path 22" d="M37.484 10.199a2.3 2.3 0 01.508 1.785c0 3.8-.031 14.59.008 18.383a2.177 2.177 0 01-.324 1.129L18.594 20.999z" fill="#3949ab"/></g></svg>