<svg xmlns="http://www.w3.org/2000/svg" width="88.66" height="125.543"><path d="M0 25l8.069 90.493 36.206 10.05 36.307-10.063L88.66 25zm69.21 50.488L66.86 97.38l.009 1.875-22.539 6.295-.018.015-22.719-6.225L20.056 82h11.141l.79 8.766 12.343 3.295v.015-.032l12.394-3.5L58.03 76H32.125l-.222-2.355L31.397 68l-.267-3h27.888l1.012-11H17.559l-.223-2.589-.506-6.03L16.565 42h55.6l-.267 3.334-2.688 30.154m.12-62.114L62.181 5h7.149V0h-16v4.363L61.72 12h-8.39v5h16zm-19 0L43.523 5h6.807V0h-15v4.363L43.063 12H35.33v5h15zM32.33 12h-8V5h8V0h-14v17h14z" fill="#1572b6"/></svg>