<svg xmlns="http://www.w3.org/2000/svg" width="88.862" height="124.974"><path d="M0 25.373l8.087 89.919 36.289 9.681 36.39-9.5 8.1-90.1zm72.041 20.471l-.51 5.834-.22 2.695H28.742l1.017 12h40.54l-.268 2.231-2.618 28.909-.192 1.69-22.79 6.134-.027.012-22.773-5.921-1.55-17.055h11.168l.791 8.46 12.385 3.14.006-.235v.012l12.412-2.649 1.296-13.728H19.584L16.85 46.537l-.267-3.164h55.724zM8.387 0h5.622v5.556h5.144V0h5.623v16.822h-5.623v-5.633H14.01v5.633H8.387V0zm23.782 5.579h-4.95V0h15.525v5.579h-4.952v11.243h-5.623V5.579zM45.208 0h5.862l3.607 5.911L58.277 0h5.865v16.822h-5.6V8.484l-3.867 5.981h-.1l-3.87-5.981v8.338h-5.5V0zm21.736 0h5.624v11.262h7.907v5.561H66.944V0z" fill="#e44d26"/></svg>