<svg xmlns="http://www.w3.org/2000/svg" width="51.488" height="49.303"><g fill="#0769ad"><path data-name="Path 8" d="M3.288 11.4c-4.6 6.5-4 15.1-.5 22a1.421 1.421 0 00.2.6c0 .1.1.2.2.3 0 .1.1.1.1.2.1.1.1.2.2.3l.3.6c.1.1.1.2.2.3.1.2.3.4.4.6.1.1.1.2.2.3.2.3.4.5.6.8l.1.1c.2.2.3.5.5.7.1.1.1.2.2.2.2.2.3.4.5.6l.2.2a2.336 2.336 0 00.7.7 4.62 4.62 0 00.7.7l.2.2.5.5.2.2a4.62 4.62 0 01.7.7l.1.1a4.349 4.349 0 00.7.6c.1.1.2.1.3.2.2.1.4.3.6.4.1.1.2.1.3.2a2.092 2.092 0 00.6.4l.2.2h.1c.2.1.4.3.6.4.1.1.2.1.3.2l.9.6c.1 0 .2.1.3.1.2.1.5.3.7.4.1.1.3.1.4.2.2.1.3.2.5.3a.1.1 0 01.1.1c.1 0 .1.1.2.1.3.1.5.3.8.4.1 0 .1 0 .2.1.3.1.6.3.9.4.1 0 .1.1.2.1l.9.3h.1c.3.1.7.2 1 .3a.349.349 0 01.2.1c.3.1.7.2 1 .3 22 4 28.4-13.2 28.4-13.2-5.4 7-14.9 8.8-24 6.8-.3-.1-.7-.2-1-.3-.1 0-.2 0-.2-.1-.3-.1-.7-.2-1-.3a.1.1 0 01-.1-.1l-.9-.3a.349.349 0 01-.2-.1c-.3-.1-.6-.3-.9-.4-.1 0-.1-.1-.2-.1a2.994 2.994 0 01-.8-.4c-.1 0-.1-.1-.2-.1l-.6-.3c-.1-.1-.3-.1-.4-.2-.2-.1-.5-.3-.7-.4a.31.31 0 00-.2-.1l-.9-.6c-.1-.1-.2-.1-.3-.2-.2-.1-.5-.3-.7-.4l-.2-.2a2.651 2.651 0 01-.6-.5c-.1-.1-.2-.1-.3-.2-.2-.1-.4-.3-.6-.4-.1-.1-.2-.1-.3-.2-.2-.2-.5-.4-.7-.6a.1.1 0 01-.1-.1l-.7-.7-.2-.2c-.2-.2-.4-.3-.5-.5l-.2-.2a4.62 4.62 0 00-.7-.7c-.2-.2-.4-.5-.7-.8l-.2-.2c-.2-.2-.3-.4-.5-.6l-.2-.2c-.3-.1-.5-.4-.7-.6-5-6.8-6.8-16.3-2.8-24"/><path data-name="Path 9" d="M17.388 5.9c-3.3 4.8-3.1 11.1-.5 16.1a12.036 12.036 0 001.5 2.4 11.182 11.182 0 001.7 2.1c.2.3.5.5.7.8l.2.2a5.716 5.716 0 00.8.7 5.5 5.5 0 00.9.7l.2.2c.3.2.6.5.9.7.1.1.3.2.4.3.1 0 .1.1.2.1.2.1.5.3.7.4a.1.1 0 01.1.1l.6.3c.1 0 .1.1.2.1.1.1.3.1.4.2h.1c.3.1.6.3.9.4.1 0 .1.1.2.1.2.1.5.2.7.3.1 0 .2.1.3.1a1.445 1.445 0 00.7.2c.1 0 .2.1.3.1.3.1.6.2 1 .3 17 2.8 20.9-10.3 20.9-10.3-3.5 5.1-10.4 7.5-17.7 5.6-.3-.1-.6-.2-1-.3-.1 0-.2-.1-.3-.1-.2-.1-.5-.1-.7-.2-.1 0-.2-.1-.3-.1-.2-.1-.5-.2-.7-.3-.1 0-.1-.1-.2-.1-.3-.1-.6-.3-.9-.4a.758.758 0 00-.4-.2c-.1 0-.2-.1-.3-.1l-.6-.3a.1.1 0 01-.1-.1c-.2-.1-.5-.3-.7-.4-.1 0-.1-.1-.2-.1-.1-.1-.3-.2-.4-.3a5.5 5.5 0 01-.9-.7l-.2-.2a20.341 20.341 0 01-6.9-9.9 15.114 15.114 0 011.2-12.3"/><path data-name="Path 10" d="M29.288 1.8a10.228 10.228 0 00-.8 9.6 13.018 13.018 0 007.7 7.2.6.6 0 00.4.1c.1 0 .1 0 .2.1.2.1.4.1.6.2 9.4 1.8 11.9-4.8 12.6-5.8-2.2 3.2-6 4-10.6 2.9-.4-.1-.8-.2-1.1-.3-.4-.2-.9-.3-1.3-.5a17.611 17.611 0 01-2.3-1.4c-4.1-3.1-6.7-9.1-4-13.9"/></g></svg>