<svg width="600" height="600" fill="none" xmlns="http://www.w3.org/2000/svg"><circle cx="300" cy="300" r="300" fill="#535749"/><path d="M398.75 241.833c-23.958-105.698-73.958-133.843-86.646-153.7393-6.896-10.8229-13.927-27.2708-13.927-27.2708-.687 9.375-1.906 15.3125-9.906 22.4375-16.021 14.2813-84.104 69.7606-89.823 189.8646-5.333 111.979 82.292 181.042 93.937 188.177 8.896 4.375 19.792.083 25-3.927 42.23-29 100-106.323 81.313-215.542" fill="#10AA50"/><path d="M301.802 401.656c-2.198 27.729-3.781 43.865-9.375 59.677 0 0 3.688 26.386 6.25 54.344h9.136c2.18-19.691 5.509-39.238 9.968-58.542-11.833-5.802-15.531-31.156-15.979-55.479z" fill="#B8C4C2"/><path d="M317.771 457.156c-11.958-5.521-15.417-31.385-15.948-55.5 2.946-39.757 3.798-79.642 2.552-119.489-.625-20.907.313-193.667-5.146-218.9587 2.209 4.948 7.542 16.573 12.875 24.875 12.74 19.9067 62.698 48.0517 86.636 153.7607 18.656 108.937-38.771 186.125-80.969 215.312z" fill="#12924F"/></svg>