<svg xmlns="http://www.w3.org/2000/svg" xmlns:xlink="http://www.w3.org/1999/xlink" width="442.371" height="270.927"><defs><linearGradient id="a" x1=".681" y1=".175" x2=".278" y2=".897" gradientUnits="objectBoundingBox"><stop offset="0" stop-color="#3f873f"/><stop offset=".33" stop-color="#3e8a3d"/><stop offset=".637" stop-color="#3e9537"/><stop offset=".934" stop-color="#3da82d"/><stop offset="1" stop-color="#3dae2b"/></linearGradient><linearGradient id="d" x1=".432" y1=".552" x2="1.591" y2="-.183" gradientUnits="objectBoundingBox"><stop offset=".138" stop-color="#3f873f"/><stop offset=".397" stop-color="#519f44"/><stop offset=".711" stop-color="#63b649"/><stop offset=".908" stop-color="#6abf4b"/></linearGradient><linearGradient id="b" x1="-57.151" y1=".5" x2="68.852" y2=".5" gradientUnits="objectBoundingBox"><stop offset=".092" stop-color="#6abf4b"/><stop offset=".289" stop-color="#63b649"/><stop offset=".603" stop-color="#519f44"/><stop offset=".862" stop-color="#3f873f"/></linearGradient><linearGradient id="e" x1="-.045" x2="1.016" xlink:href="#b"/><linearGradient id="f" x1="-347.794" x2="1" xlink:href="#b"/><linearGradient id="g" x1="-1.037" x2="1.006" xlink:href="#b"/><linearGradient id="h" x1="1.303" y1="-2.11" x2=".044" y2="2.012" xlink:href="#a"/><clipPath id="c"><path data-name="Path 40" d="M244.12 226.607a5.092 5.092 0 00-5.088 0L196.9 250.921a5.089 5.089 0 00-2.545 4.408v48.666a5.094 5.094 0 002.545 4.405l42.134 24.333a5.086 5.086 0 005.09 0l42.121-24.333a5.094 5.094 0 002.544-4.408v-48.665a5.088 5.088 0 00-2.545-4.406z" fill="url(#a)" clip-rule="evenodd"/></clipPath></defs><g data-name="Group 9" fill="#679e63"><path data-name="Path 22" d="M218.647 270.927a8.376 8.376 0 01-4.19-1.121l-13.338-7.892c-1.991-1.114-1.018-1.509-.362-1.738a26.561 26.561 0 006.031-2.743 1.025 1.025 0 01.992.076l10.247 6.084a1.315 1.315 0 001.237 0l39.95-23.058a1.26 1.26 0 00.61-1.082v-46.1a1.288 1.288 0 00-.62-1.1l-39.933-23.039a1.255 1.255 0 00-1.231 0l-39.923 23.045a1.286 1.286 0 00-.634 1.1v46.1a1.224 1.224 0 00.631 1.068l10.943 6.323c5.938 2.969 9.574-.527 9.574-4.04v-45.527a1.15 1.15 0 011.161-1.151h5.066a1.153 1.153 0 011.157 1.151v45.52c0 7.925-4.316 12.469-11.829 12.469-2.309 0-4.127 0-9.2-2.5l-10.476-6.031a8.436 8.436 0 01-4.19-7.288v-46.1a8.416 8.416 0 014.19-7.281l39.947-23.089a8.754 8.754 0 018.4 0l39.946 23.085a8.43 8.43 0 014.2 7.281v46.1a8.454 8.454 0 01-4.2 7.288l-39.949 23.069a8.381 8.381 0 01-4.207 1.121z"/><path data-name="Path 23" d="M230.987 239.165c-17.481 0-21.144-8.025-21.144-14.755a1.149 1.149 0 011.155-1.152h5.165a1.158 1.158 0 011.148.979c.779 5.258 3.1 7.912 13.676 7.912 8.416 0 12-1.9 12-6.369 0-2.575-1.015-4.485-14.1-5.766-10.93-1.081-17.691-3.5-17.691-12.241 0-8.06 6.794-12.867 18.185-12.867 12.8 0 19.131 4.441 19.934 13.972a1.155 1.155 0 01-1.151 1.257h-5.185a1.151 1.151 0 01-1.122-.9c-1.243-5.533-4.269-7.3-12.476-7.3-9.188 0-10.257 3.2-10.257 5.6 0 2.906 1.261 3.752 13.668 5.394 12.277 1.622 18.108 3.921 18.108 12.549.004 8.705-7.254 13.687-19.913 13.687z"/></g><g data-name="Group 10"><path data-name="Path 24" d="M288.594 190.814a7.7 7.7 0 11-7.7-7.7 7.72 7.72 0 017.7 7.7zm-14.155-.022a6.457 6.457 0 106.435-6.435 6.459 6.459 0 00-6.436 6.435zm3.563-4.3h2.975c1.019 0 3.016 0 3.016 2.282a1.985 1.985 0 01-1.633 2.118c1.185.081 1.264.856 1.427 1.955a8.515 8.515 0 00.448 2.281h-1.831c-.044-.406-.329-2.607-.329-2.728-.119-.49-.285-.733-.9-.733h-1.506v3.461h-1.672zm1.632 3.788h1.343a1.162 1.162 0 001.3-1.221c0-1.183-.816-1.183-1.264-1.183h-1.383z" fill="#679e63"/></g><path data-name="Path 25" d="M94.937 90.55a5.108 5.108 0 00-2.558-4.445L50.024 61.73a4.978 4.978 0 00-2.332-.674h-.438a5.048 5.048 0 00-2.338.674L2.561 86.105A5.132 5.132 0 000 90.55l.094 65.633a2.514 2.514 0 001.277 2.21 2.461 2.461 0 002.541 0l25.171-14.41a5.153 5.153 0 002.56-4.438v-30.667a5.1 5.1 0 012.555-4.429l10.718-6.173a5.092 5.092 0 012.564-.687 5.012 5.012 0 012.544.687l10.715 6.173a5.1 5.1 0 012.558 4.429v30.665a5.166 5.166 0 002.564 4.44l25.165 14.414a2.49 2.49 0 002.557 0 2.556 2.556 0 001.271-2.21z" fill="#333" fill-rule="evenodd"/><path data-name="Path 26" d="M298.734.324a2.558 2.558 0 00-3.805 2.234v65a1.789 1.789 0 01-2.685 1.551l-10.608-6.112a5.118 5.118 0 00-5.112 0L234.152 87.45a5.116 5.116 0 00-2.558 4.433v48.916a5.119 5.119 0 002.558 4.432l42.369 24.471a5.116 5.116 0 005.119 0l42.376-24.471a5.119 5.119 0 002.558-4.432V18.862a5.118 5.118 0 00-2.624-4.468zm-3.931 124.4a1.276 1.276 0 01-.64 1.106l-14.548 8.386a1.277 1.277 0 01-1.277 0l-14.544-8.384a1.276 1.276 0 01-.64-1.106v-16.8a1.283 1.283 0 01.639-1.109l14.548-8.4a1.278 1.278 0 011.28 0l14.548 8.4a1.284 1.284 0 01.638 1.109z" fill="#333" fill-rule="evenodd"/><g data-name="Group 11" fill-rule="evenodd"><path data-name="Path 27" d="M439.825 107.488a5.116 5.116 0 002.546-4.424V91.21a5.115 5.115 0 00-2.548-4.425l-42.1-24.443a5.114 5.114 0 00-5.127-.007l-42.355 24.448a5.115 5.115 0 00-2.558 4.43v48.9a5.115 5.115 0 002.584 4.446l42.093 23.985a5.112 5.112 0 005.017.028l25.46-14.151a2.558 2.558 0 00.032-4.455l-42.625-24.457a2.559 2.559 0 01-1.286-2.219v-15.326a2.556 2.556 0 011.281-2.216l13.266-7.648a2.555 2.555 0 012.554 0l13.272 7.648a2.556 2.556 0 011.281 2.216v12.058a2.558 2.558 0 003.843 2.213z" fill="#333"/><path data-name="Path 28" d="M394.536 105.197a.979.979 0 01.982 0l8.131 4.691a.983.983 0 01.49.851v9.388a.984.984 0 01-.49.851l-8.131 4.69a.979.979 0 01-.982 0l-8.124-4.69a.985.985 0 01-.491-.851v-9.388a.984.984 0 01.491-.851z" fill="#679e63"/></g><g data-name="Group 15"><path data-name="Path 29" d="M244.12 226.607a5.092 5.092 0 00-5.088 0L196.9 250.921a5.089 5.089 0 00-2.545 4.408v48.666a5.094 5.094 0 002.545 4.405l42.134 24.333a5.086 5.086 0 005.09 0l42.121-24.333a5.094 5.094 0 002.544-4.408v-48.665a5.088 5.088 0 00-2.545-4.406z" fill-rule="evenodd" fill="url(#a)" transform="translate(-78.306 -164.017)"/><g data-name="Group 14" clip-path="url(#c)" transform="translate(-78.306 -164.017)"><g data-name="Group 12"><path data-name="Path 30" d="M238.944 226.607l-42.222 24.314a5.259 5.259 0 00-2.722 4.408v48.666a4.922 4.922 0 001.313 3.238l47.44-81.152a5.17 5.17 0 00-3.809.526z" fill="none"/><path data-name="Path 31" d="M242.988 333.229a5.019 5.019 0 001.186-.493l42.177-24.336a5.2 5.2 0 002.649-4.405v-48.668a5.029 5.029 0 00-1.54-3.534z" fill="none"/><path data-name="Path 32" d="M286.327 250.921l-42.252-24.314a5.065 5.065 0 00-1.322-.526l-47.44 81.152a5.808 5.808 0 001.42 1.17l42.324 24.333a5.142 5.142 0 003.931.493l44.472-81.436a5.567 5.567 0 00-1.133-.872z" fill="url(#d)"/></g><g data-name="Group 13"><path data-name="Path 33" d="M289 303.995v-48.668a5.211 5.211 0 00-2.673-4.406l-42.252-24.314a5.085 5.085 0 00-1.55-.571l46.317 79.128a4.661 4.661 0 00.158-1.169z" fill="none"/><path data-name="Path 34" d="M196.722 250.921a5.259 5.259 0 00-2.722 4.408v48.666a5.281 5.281 0 002.733 4.408l42.324 24.333a5.13 5.13 0 003.256.633l-45.337-82.594z" fill="none"/><path data-name="Path 35" d="M237.627 217.669l-.579.331h.773z" fill="url(#b)"/><path data-name="Path 36" d="M286.351 308.4a5.325 5.325 0 002.491-3.239l-46.317-79.128a5.166 5.166 0 00-3.581.571l-41.968 24.168 45.337 82.594a5.083 5.083 0 001.861-.633z" fill="url(#e)"/><path data-name="Path 37" d="M290.279 307.62l-.279-.477v.639z" fill="url(#f)"/><path data-name="Path 38" d="M286.351 308.4l-42.177 24.333a5.083 5.083 0 01-1.861.633l.84 1.53L290 307.782v-.639l-1.158-1.979a5.325 5.325 0 01-2.491 3.236z" fill="url(#g)"/><path data-name="Path 39" d="M286.351 308.4l-42.177 24.333a5.083 5.083 0 01-1.861.633l.84 1.53L290 307.782v-.639l-1.158-1.979a5.325 5.325 0 01-2.491 3.236z" fill="url(#h)"/></g></g></g></svg>