<svg xmlns="http://www.w3.org/2000/svg" width="78.604" height="70"><g fill="#61dafb"><path data-name="Path 5" d="M78.6 35.008c0-5.207-6.521-10.142-16.519-13.2 2.307-10.19 1.282-18.3-3.236-20.893a7.025 7.025 0 00-3.589-.9v3.573a3.71 3.71 0 011.826.417c2.179 1.25 3.124 6.008 2.387 12.129-.176 1.506-.465 3.092-.817 4.71A77.647 77.647 0 0048.483 19.1a78.15 78.15 0 00-6.665-8.011c5.223-4.855 10.126-7.514 13.458-7.514V0C50.87 0 45.102 3.14 39.27 8.588 33.438 3.173 27.67.064 23.264.064v3.573c3.316 0 8.235 2.644 13.458 7.466a75.672 75.672 0 00-6.617 7.995 74.817 74.817 0 00-10.19 1.762c-.368-1.6-.641-3.156-.833-4.646-.753-6.12.176-10.879 2.339-12.145a3.565 3.565 0 011.843-.417V.08a7.144 7.144 0 00-3.621.9c-4.5 2.6-5.512 10.687-3.188 20.845C6.489 24.901 0 29.82 0 35.011c0 5.207 6.521 10.142 16.519 13.2-2.307 10.19-1.282 18.3 3.236 20.893a7.043 7.043 0 003.6.9c4.406 0 10.174-3.14 16.006-8.588 5.832 5.415 11.6 8.524 16.006 8.524a7.144 7.144 0 003.621-.9c4.5-2.6 5.512-10.687 3.188-20.845C72.115 45.134 78.6 40.2 78.6 35.008zM57.739 24.321c-.593 2.067-1.33 4.2-2.163 6.329-.657-1.282-1.346-2.564-2.1-3.845-.737-1.282-1.522-2.531-2.307-3.749 2.28.336 4.475.753 6.574 1.265zm-7.338 17.063c-1.25 2.163-2.531 4.214-3.861 6.12-2.387.208-4.807.32-7.242.32-2.419 0-4.839-.112-7.21-.3q-1.995-2.86-3.877-6.088-1.827-3.148-3.333-6.377c.993-2.147 2.115-4.294 3.317-6.393 1.25-2.163 2.531-4.214 3.861-6.12 2.387-.208 4.807-.32 7.242-.32 2.419 0 4.839.112 7.21.3q1.995 2.86 3.877 6.088 1.826 3.148 3.333 6.377c-1.006 2.148-2.111 4.295-3.313 6.394zm5.175-2.083c.865 2.147 1.6 4.294 2.211 6.377-2.1.513-4.31.945-6.6 1.282.785-1.234 1.57-2.5 2.307-3.8.74-1.279 1.429-2.576 2.086-3.86zm-16.246 17.1a66.067 66.067 0 01-4.454-5.127c1.442.064 2.916.112 4.406.112 1.506 0 3-.032 4.454-.112a62.545 62.545 0 01-4.402 5.126zm-11.92-9.437c-2.275-.336-4.47-.753-6.569-1.266.593-2.067 1.33-4.2 2.163-6.329.657 1.282 1.346 2.564 2.1 3.845s1.525 2.529 2.31 3.746zm11.84-33.342a66.047 66.047 0 014.454 5.127c-1.442-.064-2.916-.112-4.406-.112-1.506 0-3 .032-4.454.112a62.544 62.544 0 014.41-5.13zM27.4 23.056c-.785 1.234-1.57 2.5-2.307 3.8-.737 1.282-1.426 2.563-2.083 3.845-.865-2.147-1.6-4.294-2.211-6.377 2.101-.499 4.307-.932 6.601-1.268zm-14.5 20.06c-5.672-2.419-9.341-5.592-9.341-8.107s3.669-5.7 9.341-8.107c1.378-.593 2.884-1.122 4.438-1.618a76.956 76.956 0 003.6 9.757 75.871 75.871 0 00-3.557 9.709c-1.581-.497-3.089-1.042-4.481-1.635zm8.62 22.9c-2.179-1.25-3.124-6.008-2.387-12.129.176-1.506.465-3.092.817-4.71a77.642 77.642 0 0010.174 1.746 78.165 78.165 0 006.665 8.011c-5.223 4.855-10.126 7.514-13.458 7.514a3.823 3.823 0 01-1.813-.437zm38-12.209c.753 6.12-.176 10.879-2.339 12.145a3.566 3.566 0 01-1.843.417c-3.317 0-8.235-2.644-13.458-7.466A75.678 75.678 0 0048.5 50.9a74.82 74.82 0 0010.19-1.762 44.861 44.861 0 01.832 4.662zm6.168-10.687c-1.378.593-2.884 1.122-4.438 1.618a76.951 76.951 0 00-3.6-9.757 75.858 75.858 0 003.557-9.709c1.586.5 3.092 1.041 4.5 1.634 5.672 2.419 9.341 5.592 9.341 8.107-.017 2.51-3.686 5.699-9.358 8.102z"/><circle data-name="Ellipse 1" cx="7.322" cy="7.322" r="7.322" transform="translate(31.964 27.686)"/></g></svg>