<svg xmlns="http://www.w3.org/2000/svg" width="78.583" height="74.6"><g fill="#764abc"><path data-name="Path 19" d="M54.45 52.1a5.617 5.617 0 00-.6-11.2h-.2a5.6 5.6 0 00-5.4 5.8 5.743 5.743 0 001.6 3.7c-3.4 6.7-8.6 11.6-16.4 15.7a27.043 27.043 0 01-16.3 3.1c-4.5-.6-8-2.6-10.2-5.9a14.689 14.689 0 01-.8-15.5 23.539 23.539 0 016.8-8c-.4-1.3-1-3.5-1.3-5.1-14.5 10.5-13 24.7-8.6 31.4 3.3 5 10 8.1 17.4 8.1a24.584 24.584 0 006-.7 38.375 38.375 0 0028-21.4z"/><path data-name="Path 20" d="M72.05 39.7c-7.6-8.9-18.8-13.8-31.6-13.8h-1.6a5.5 5.5 0 00-4.9-3h-.2a5.60089279 5.60089279 0 00.2 11.2h.2a5.633 5.633 0 004.9-3.4h1.8a38.114 38.114 0 0121.3 6.5A26.788 26.788 0 0172.75 50a13.86 13.86 0 01-.2 11.8 14.681 14.681 0 01-13.7 8.2 25.576 25.576 0 01-9.8-2.1c-1.1 1-3.1 2.6-4.5 3.6a30.869 30.869 0 0012.9 3.1c9.6 0 16.7-5.3 19.4-10.6 2.9-5.8 2.7-15.8-4.8-24.3z"/><path data-name="Path 21" d="M21.25 53.8a5.617 5.617 0 005.6 5.4h.2a5.60089279 5.60089279 0 00-.2-11.2h-.2a1.7 1.7 0 00-.7.1 36.641 36.641 0 01-5.2-22.2 26.826 26.826 0 015.9-15.5c2.9-3.7 8.5-5.5 12.3-5.6 10.6-.2 15.1 13 15.4 18.3 1.3.3 3.5 1 5 1.5C58.15 8.4 48.15 0 38.55 0c-9 0-17.3 6.5-20.6 16.1-4.6 12.8-1.6 25.1 4 34.8a4.492 4.492 0 00-.7 2.9z"/></g></svg>