<svg xmlns="http://www.w3.org/2000/svg" width="117.058" height="70"><path data-name="Path 15" d="M32.988 25.423a11.78 11.78 0 00.428 3.465 20.84 20.84 0 001.246 2.8 1.693 1.693 0 01.273.9 1.541 1.541 0 01-.74 1.168l-2.455 1.633a1.867 1.867 0 01-1.012.35 1.791 1.791 0 01-1.168-.545 12.043 12.043 0 01-1.4-1.83c-.389-.662-.779-1.4-1.207-2.3a14.382 14.382 0 01-11.446 5.376 10.667 10.667 0 01-7.786-2.8 10 10 0 01-2.881-7.478 10.022 10.022 0 013.543-8.02c2.375-2.024 5.528-3.037 9.538-3.037a30.825 30.825 0 014.127.311c1.44.195 2.92.506 4.477.857v-2.841c0-2.959-.623-5.022-1.83-6.229C23.45 6 21.347 5.412 18.349 5.412a17.714 17.714 0 00-4.2.506 31.022 31.022 0 00-4.2 1.324 11.171 11.171 0 01-1.363.506 2.388 2.388 0 01-.623.117c-.545 0-.818-.389-.818-1.207V4.75a2.463 2.463 0 01.273-1.363 2.915 2.915 0 011.09-.818A22.414 22.414 0 0113.413.817a23.6 23.6 0 016.073-.74c4.633 0 8.02 1.051 10.2 3.154 2.141 2.1 3.231 5.295 3.231 9.577v12.615zM17.181 31.34a12.617 12.617 0 004.01-.7 8.675 8.675 0 003.7-2.492 6.18 6.18 0 001.324-2.492 13.977 13.977 0 00.389-3.387v-1.635a32.513 32.513 0 00-3.582-.662 29.336 29.336 0 00-3.66-.234c-2.608 0-4.516.506-5.8 1.557a5.426 5.426 0 00-1.908 4.477 5.434 5.434 0 001.44 4.128 5.4 5.4 0 004.087 1.44zm31.263 4.2a2.173 2.173 0 01-1.479-.389 3.173 3.173 0 01-.818-1.518l-9.149-30.09a6.82 6.82 0 01-.35-1.557.854.854 0 01.934-.973h3.815a2.158 2.158 0 011.518.389 3.185 3.185 0 01.779 1.518l6.541 25.773L56.308 2.92a2.731 2.731 0 01.74-1.518 2.678 2.678 0 011.557-.389h3.115a2.343 2.343 0 011.557.389 2.623 2.623 0 01.74 1.518L70.168 29l6.735-26.08a3.338 3.338 0 01.779-1.52 2.54 2.54 0 011.518-.389h3.621a.865.865 0 01.973.973 3.884 3.884 0 01-.078.623 5.54 5.54 0 01-.273.973l-9.382 30.096a2.985 2.985 0 01-.818 1.518 2.491 2.491 0 01-1.479.389h-3.348a2.343 2.343 0 01-1.557-.389 2.76 2.76 0 01-.74-1.557L60.085 8.526l-6 25.072a3.039 3.039 0 01-.74 1.557 2.413 2.413 0 01-1.557.389zm50.028 1.06a25.763 25.763 0 01-6-.7 17.711 17.711 0 01-4.477-1.557 2.805 2.805 0 01-1.207-1.09 2.748 2.748 0 01-.234-1.09v-1.991c0-.818.311-1.207.9-1.207a2.2 2.2 0 01.7.117c.234.078.584.234.973.389a21.176 21.176 0 004.283 1.363 23.38 23.38 0 004.633.467 10.5 10.5 0 005.684-1.285 4.192 4.192 0 002.024-3.7 3.791 3.791 0 00-1.051-2.725 9.768 9.768 0 00-3.932-2.024l-5.645-1.752a11.875 11.875 0 01-6.229-3.971 9.276 9.276 0 01-1.946-5.644 8.665 8.665 0 011.051-4.321 10.01 10.01 0 012.8-3.192A12.357 12.357 0 0194.848.663a16.968 16.968 0 014.905-.662 19.544 19.544 0 012.608.156c.9.117 1.713.273 2.531.428.779.195 1.518.389 2.219.623a8.5 8.5 0 011.635.7 3.366 3.366 0 011.168.973 2.1 2.1 0 01.35 1.285V6c0 .818-.311 1.246-.9 1.246a4.05 4.05 0 01-1.479-.467 17.811 17.811 0 00-7.475-1.518 10.049 10.049 0 00-5.178 1.09 3.759 3.759 0 00-1.83 3.465 3.676 3.676 0 001.168 2.764 11.629 11.629 0 004.283 2.141l5.528 1.752a11.841 11.841 0 016.035 3.737 8.81 8.81 0 011.791 5.451 10.008 10.008 0 01-1.012 4.516 10.47 10.47 0 01-2.842 3.426 12.55 12.55 0 01-4.321 2.18 18.513 18.513 0 01-5.56.817z"/><g data-name="Group 8" fill="#f90" fill-rule="evenodd"><path data-name="Path 16" d="M105.832 55.514c-12.809 9.461-31.418 14.483-47.419 14.483A85.787 85.787 0 01.519 47.926c-1.207-1.09-.117-2.57 1.324-1.713a116.752 116.752 0 0057.931 15.378 115.6 115.6 0 0044.188-9.032c2.141-.974 3.97 1.401 1.87 2.955z"/><path data-name="Path 17" d="M111.164 49.448c-1.635-2.1-10.823-1.012-14.989-.506-1.246.156-1.44-.934-.311-1.752 7.319-5.139 19.349-3.66 20.751-1.947 1.4 1.752-.389 13.782-7.241 19.544-1.051.9-2.063.428-1.6-.74 1.558-3.858 5.025-12.539 3.39-14.599z"/></g></svg>