<svg xmlns="http://www.w3.org/2000/svg" width="163.367" height="70"><path data-name="Path 8" d="M163.367 60.926A9.074 9.074 0 01154.293 70H9.074A9.074 9.074 0 010 60.926V9.074A9.074 9.074 0 019.074 0h145.219a9.074 9.074 0 019.074 9.074z" fill="#092e20"/><g data-name="Group 7"><g data-name="Group 6" fill="#fff"><path data-name="Path 9" d="M28.177 10.993h7.74v35.81a51.035 51.035 0 01-10.05 1.055c-9.444 0-14.368-4.269-14.368-12.459 0-7.887 5.225-13.011 13.313-13.011a12.392 12.392 0 013.366.4v-11.8zm0 18.026a7.685 7.685 0 00-2.612-.4c-3.918 0-6.179 2.412-6.179 6.631 0 4.12 2.16 6.381 6.129 6.381a18.1 18.1 0 002.662-.2z"/><path data-name="Path 10" d="M48.221 22.94v17.935c0 6.179-.452 9.142-1.808 11.7-1.256 2.462-2.914 4.018-6.33 5.727l-7.184-3.414c3.416-1.607 5.074-3.013 6.129-5.174 1.105-2.21 1.457-4.773 1.457-11.5V22.94zm-7.736-11.906h7.736v7.938h-7.736z"/><path data-name="Path 11" d="M52.894 24.699a23.268 23.268 0 0110.248-2.311c3.969 0 6.581 1.055 7.737 3.115.653 1.155.854 2.662.854 5.878v15.728a85.018 85.018 0 01-11.052.854c-6.48 0-9.395-2.261-9.395-7.284 0-5.426 3.868-7.938 13.363-8.742v-1.713c0-1.406-.7-1.908-2.663-1.908a20.26 20.26 0 00-9.093 2.361v-5.978zm12.107 12.31c-5.124.5-6.782 1.306-6.782 3.316 0 1.507.955 2.211 3.064 2.211a21.407 21.407 0 003.718-.351z"/><path data-name="Path 12" d="M75.501 24.146a46.371 46.371 0 0112.157-1.758c3.969 0 6.832.9 8.541 2.663 1.607 1.657 2.109 3.465 2.109 7.335v15.171h-7.736V32.686c0-2.964-1-4.07-3.767-4.07a11.656 11.656 0 00-3.567.553v18.387h-7.736v-23.41z"/><path data-name="Path 13" d="M101.316 51.776a17.615 17.615 0 008.289 2.059c5.073 0 7.234-2.059 7.234-6.983v-.148a10.577 10.577 0 01-5.023 1.056c-6.782 0-11.1-4.471-11.1-11.554 0-8.792 6.381-13.765 17.683-13.765a48.877 48.877 0 0110.1 1.1l-2.649 5.581c-2.06-.4-.165-.054-1.721-.2v.8l.1 3.265.05 4.22c.05 1.054.05 2.11.1 3.164v2.11c0 6.631-.553 9.746-2.21 12.308-2.411 3.768-6.581 5.627-12.509 5.627a22.132 22.132 0 01-8.339-1.507v-7.133zm15.372-23.109h-.8a8.453 8.453 0 00-4.471 1.1c-1.858 1.056-2.813 2.964-2.813 5.677 0 3.869 1.91 6.079 5.325 6.079a9.591 9.591 0 002.914-.5v-2.66c0-.9-.05-1.909-.05-2.964l-.05-3.567-.051-2.562v-.6z"/><path data-name="Path 14" d="M140.504 22.288c7.736 0 12.459 4.873 12.459 12.759 0 8.088-4.923 13.162-12.76 13.162-7.737 0-12.509-4.873-12.509-12.709-.001-8.139 4.923-13.212 12.81-13.212zm-.151 19.692c2.964 0 4.723-2.462 4.723-6.732 0-4.219-1.708-6.732-4.672-6.732-3.065 0-4.823 2.462-4.823 6.732s1.758 6.732 4.771 6.732z"/></g></g></svg>