<svg xmlns="http://www.w3.org/2000/svg" width="679" height="753"><rect width="100%" height="100%" fill="none"/><g class="currentLayer"><path fill="#8ed6fb" d="M657.89999988 580.20000387l-305.1 172.6v-134.4l190.1-104.6 115 66.4zm20.9-18.9v-360.9l-111.6 64.5v232l111.6 64.4zm-657.9 18.9l305.1 172.6v-134.4l-190.2-104.6-114.9 66.4zm-20.9-18.9v-360.9l111.6 64.5v232l-111.6 64.4zm13.1-384.3l312.9-177v129.9l-200.5 110.3-1.6.9-110.8-64.1zm652.6 0l-312.9-177v129.9l200.5 110.2 1.6.9 110.8-64z"/><path fill="#1c78c0" d="M324.66577077 587.80000387l-187.6-103.2v-204.3l187.6 108.3v199.2zm26.8 0l187.6-103.1v-204.4l-187.6 108.3v199.2zm-13.4-207zm-188.3-124.1l188.3-103.5 188.3 103.5-188.3 108.7-188.3-108.7z"/></g></svg>