<svg xmlns="http://www.w3.org/2000/svg" width="32" height="31.21"><path d="M15.999 0a16 16 0 00-5.057 31.183c.8.146 1.092-.347 1.092-.771 0-.38-.014-1.386-.022-2.722-4.45.967-5.389-2.144-5.389-2.144a4.238 4.238 0 00-1.777-2.341c-1.453-.993.11-.972.11-.972a3.359 3.359 0 012.451 1.648 3.407 3.407 0 004.657 1.33 3.42 3.42 0 011.016-2.139c-3.553-.4-7.288-1.776-7.288-7.908a6.186 6.186 0 011.647-4.293 5.748 5.748 0 01.157-4.234s1.343-.43 4.4 1.64a15.173 15.173 0 018.011 0c3.055-2.071 4.4-1.64 4.4-1.64a5.75 5.75 0 01.16 4.234 6.175 6.175 0 011.644 4.293c0 6.147-3.741 7.5-7.306 7.9a3.82 3.82 0 011.086 2.963c0 2.139-.02 3.865-.02 4.39 0 .427.289.925 1.1.769A16 16 0 0016.003.005z" fill="#fff" fill-rule="evenodd"/></svg>